<?xml version="1.0" encoding="iso-8859-1"?>
<!-- Generator: Adobe Illustrator 21.0.0, SVG Export Plug-In . SVG Version: 6.00 Build 0)  -->
<svg version="1.1" id="Capa_1" xmlns="http://www.w3.org/2000/svg" xmlns:xlink="http://www.w3.org/1999/xlink" x="0px" y="0px"
	 viewBox="0 0 512 512" style="enable-background:new 0 0 512 512;" xml:space="preserve">
<g>
	<path d="M477.332,298.617H34.668c-5.331,0-9.668-4.337-9.668-9.669V59.384c0-5.332,4.337-9.669,9.668-9.669h442.663
		c5.331,0,9.668,4.337,9.668,9.669v229.563C487,294.279,482.663,298.617,477.332,298.617z M40,283.617h432V64.715H40V283.617z"/>
	<path d="M479.5,94.117h-447c-4.142,0-7.5-3.358-7.5-7.5V59.384c0-5.332,4.337-9.669,9.668-9.669h442.663
		c5.331,0,9.668,4.337,9.668,9.669v27.233C487,90.759,483.642,94.117,479.5,94.117z M40,79.117h432V64.715H40V79.117z
		 M477.332,64.715h0.01H477.332z"/>
	<path d="M356.929,298.617H155.071c-4.142,0-7.5-3.358-7.5-7.5v-32.419c0-7.921,6.444-14.365,14.365-14.365h188.128
		c7.921,0,14.365,6.444,14.365,14.365v32.419C364.429,295.259,361.071,298.617,356.929,298.617z M162.571,283.617h186.858v-24.284
		H162.571V283.617z"/>
	<path d="M111.14,197.052H32.5c-4.142,0-7.5-3.358-7.5-7.5V86.617c0-4.142,3.358-7.5,7.5-7.5h85.159c4.142,0,7.5,3.358,7.5,7.5
		v96.416C125.159,190.763,118.87,197.052,111.14,197.052z M40,182.052h70.159V94.117H40V182.052z"/>
	<path d="M43.392,298.617c-3.033,0-5.768-1.827-6.929-4.629c-1.162-2.803-0.52-6.029,1.625-8.174l143.045-143.045
		c9.288-9.288,24.4-9.289,33.689,0l103.761,103.761c2.145,2.145,2.787,5.371,1.626,8.173c-1.161,2.803-3.896,4.63-6.929,4.63
		H162.571v31.752c0,4.141-3.356,7.499-7.498,7.5C129.446,298.592,43.511,298.617,43.392,298.617z M155.071,291.085h0.01H155.071z
		 M191.74,153.375L61.504,283.611l86.067-0.025v-24.889c0-7.921,6.444-14.366,14.366-14.366h133.237l-90.958-90.958
		C200.767,149.926,195.189,149.927,191.74,153.375z"/>
	<path d="M468.608,298.547c-0.107,0,1.197,0-111.68-0.02c-4.142-0.001-7.499-3.358-7.499-7.5v-31.696H313.28
		c-1.989,0-3.897-0.79-5.303-2.197l-22.908-22.908c-2.929-2.929-2.929-7.678,0-10.606l46.515-46.515
		c9.289-9.288,24.402-9.288,33.689,0l108.638,108.639c2.145,2.145,2.787,5.371,1.625,8.174
		C474.376,296.72,471.641,298.547,468.608,298.547z M364.43,283.529l86.068,0.015l-95.832-95.832c-3.438-3.439-9.036-3.439-12.476,0
		l-41.212,41.212l15.408,15.408h33.677c7.921,0,14.366,6.444,14.366,14.366V283.529z M350.063,259.332h0.01H350.063z"/>
	<polygon style="fill:#DADEE4;" points="326.247,451.028 185.753,451.028 203.673,357.325 308.327,357.325 	"/>
	<path style="fill:#DADEE4;" d="M342.951,487.285H169.049c-10.012,0-18.128-8.116-18.128-18.128c0-9.983,8.088-18.129,18.128-18.129
		h173.901c10.012,0,18.128,8.116,18.128,18.129C361.079,479.139,352.991,487.285,342.951,487.285z"/>
	<path style="fill:#B4BCC9;" d="M308.327,357.325h-36.175l6.147,32.141c4.125,21.569-12.407,41.562-34.367,41.562h-54.354l-3.825,20
		h140.494L308.327,357.325z"/>
	<path style="fill:#B4BCC9;" d="M342.951,451.027h-21.968c-0.937,9.133-8.652,16.257-18.032,16.257H151.017
		c-1.104,10.766,7.341,20,18.032,20h173.901c10.012,0,18.128-8.116,18.128-18.128C361.079,459.144,352.963,451.027,342.951,451.027z
		"/>
	<path style="fill:#DADEE4;" d="M489.463,24.715H22.537C10.11,24.715,0,34.825,0,47.253v295.035
		c0,12.427,10.11,22.538,22.537,22.538h466.926c12.427,0,22.537-10.11,22.537-22.538V47.253
		C512,34.825,501.89,24.715,489.463,24.715z"/>
	<path style="fill:#B4BCC9;" d="M489.463,24.715h-17.604C472.079,26.679,472,8.412,472,289.035c0,30.812-24.978,55.79-55.79,55.79
		H0.142c1.265,11.237,10.826,20,22.395,20h466.926c12.427,0,22.537-10.11,22.537-22.538V47.253
		C512,34.825,501.89,24.715,489.463,24.715z"/>
	<path style="fill:#A0CAFE;" d="M32.5,288.948V59.384c0-1.198,0.971-2.169,2.169-2.169h442.663c1.198,0,2.169,0.971,2.169,2.169
		v229.564c0,1.198-0.971,2.169-2.169,2.169H34.669C33.471,291.117,32.5,290.146,32.5,288.948z"/>
	<path style="fill:#81B8FD;" d="M477.331,57.215H439.5v152.256c0,34.046-27.599,61.645-61.645,61.645H32.5v17.831
		c0,1.198,0.971,2.169,2.169,2.169h442.663c1.198,0,2.169-0.971,2.169-2.169V59.384C479.5,58.186,478.529,57.215,477.331,57.215z"/>
	<path style="fill:#5F6C75;" d="M477.331,57.216H34.669c-1.198,0-2.169,0.971-2.169,2.169v27.233h447V59.384
		C479.5,58.186,478.529,57.216,477.331,57.216z"/>
	<path style="fill:#4E5A61;" d="M477.331,57.215H439.5v29.402h40V59.384C479.5,58.187,478.529,57.215,477.331,57.215z"/>
	<path style="fill:#FFFFFF;" d="M356.929,291.117H155.071v-32.419c0-3.792,3.074-6.866,6.866-6.866h188.128
		c3.792,0,6.866,3.074,6.866,6.866V291.117z"/>
	<path style="fill:#FFFFFF;" d="M111.14,189.552H32.5V86.617h85.159v96.416C117.659,186.634,114.74,189.552,111.14,189.552z"/>
	<path style="fill:#BEE299;" d="M155.071,258.698c0-3.792,3.074-6.866,6.866-6.866H313.28L209.519,148.072
		c-6.374-6.374-16.708-6.374-23.082,0L43.392,291.117l111.679-0.032V258.698z"/>
	<polygon style="fill:#9ED369;" points="155.071,271.117 63.392,271.117 43.392,291.117 155.071,291.084 	"/>
	<path style="fill:#AEDB81;" d="M350.064,251.832c3.792,0,6.866,3.074,6.866,6.866v32.33l111.679,0.019L359.97,182.409
		c-6.374-6.374-16.708-6.374-23.082,0l-46.515,46.515l22.908,22.908H350.064z"/>
	<path style="fill:#9ED369;" d="M425.785,248.224c-11.301,13.96-28.569,22.893-47.93,22.893h-20.925v19.911l111.679,0.019
		L425.785,248.224z"/>
	<circle style="fill:#5F6C75;" cx="256" cy="324.186" r="13.765"/>
	<path style="fill:#B4BCC9;" d="M350.064,251.832h-33.134v2.407c0,9.321-7.556,16.877-16.877,16.877H155.071v20h201.859v-32.419
		C356.929,254.906,353.856,251.832,350.064,251.832z"/>
	<path style="fill:#5F6C75;" d="M184.599,271.475c0,3.679-2.983,6.662-6.662,6.662c-3.679,0-6.662-2.983-6.662-6.662
		s2.983-6.662,6.662-6.662C181.616,264.813,184.599,267.795,184.599,271.475z M209.162,264.813c-3.679,0-6.662,2.983-6.662,6.662
		s2.983,6.662,6.662,6.662c3.679,0,6.662-2.983,6.662-6.662S212.841,264.813,209.162,264.813z M240.387,264.813
		c-3.679,0-6.662,2.983-6.662,6.662s2.983,6.662,6.662,6.662s6.662-2.983,6.662-6.662S244.067,264.813,240.387,264.813z
		 M271.613,264.813c-3.679,0-6.662,2.983-6.662,6.662s2.983,6.662,6.662,6.662s6.662-2.983,6.662-6.662
		S275.292,264.813,271.613,264.813z M302.838,264.813c-3.679,0-6.662,2.983-6.662,6.662s2.983,6.662,6.662,6.662
		s6.662-2.983,6.662-6.662S306.517,264.813,302.838,264.813z M334.064,264.813c-3.679,0-6.662,2.983-6.662,6.662
		s2.983,6.662,6.662,6.662s6.662-2.983,6.662-6.662S337.743,264.813,334.064,264.813z"/>
	<g>
		<path style="fill:#4E5A61;" d="M296.194,271.117c-0.207,3.89,2.885,7.02,6.644,7.02c4.884,0,8.114-5.097,6.013-9.515
			c-2.565,1.573-5.57,2.495-8.799,2.495H296.194z"/>
		<path style="fill:#4E5A61;" d="M271.613,278.137c3.759,0,6.851-3.129,6.644-7.02h-13.288
			C264.762,275.007,267.853,278.137,271.613,278.137z"/>
		<path style="fill:#4E5A61;" d="M177.937,278.137c3.759,0,6.851-3.129,6.644-7.02h-13.288
			C171.085,275.007,174.177,278.137,177.937,278.137z"/>
		<path style="fill:#4E5A61;" d="M240.387,278.137c3.759,0,6.851-3.129,6.644-7.02h-13.288
			C233.536,275.007,236.628,278.137,240.387,278.137z"/>
		<path style="fill:#4E5A61;" d="M209.162,278.137c3.759,0,6.851-3.129,6.644-7.02h-13.288
			C202.311,275.007,205.403,278.137,209.162,278.137z"/>
		<circle style="fill:#4E5A61;" cx="334.064" cy="271.475" r="6.662"/>
	</g>
	<path style="fill:#B4BCC9;" d="M77.659,86.617v49.063c0,18.707-15.165,33.872-33.872,33.872H32.5v20h78.64
		c3.6,0,6.519-2.919,6.519-6.519V86.617H77.659z"/>
	<path style="fill:#5F6C75;" d="M95.801,117.672H54.358c-4.142,0-7.5-3.358-7.5-7.5s3.358-7.5,7.5-7.5h41.442
		c4.142,0,7.5,3.358,7.5,7.5S99.943,117.672,95.801,117.672z M103.301,138.085c0-4.142-3.358-7.5-7.5-7.5H54.358
		c-4.142,0-7.5,3.358-7.5,7.5s3.358,7.5,7.5,7.5h41.442C99.943,145.585,103.301,142.227,103.301,138.085z M103.301,165.998
		c0-4.142-3.358-7.5-7.5-7.5H54.358c-4.142,0-7.5,3.358-7.5,7.5s3.358,7.5,7.5,7.5h41.442
		C99.943,173.498,103.301,170.14,103.301,165.998z"/>
	<g>
		<path style="fill:#4E5A61;" d="M54.358,173.498h41.442c4.142,0,7.5-3.358,7.5-7.5s-3.358-7.5-7.5-7.5H68.819
			c-5.379,5.898-12.816,9.881-21.174,10.83C48.873,171.796,51.414,173.498,54.358,173.498z"/>
		<path style="fill:#4E5A61;" d="M95.801,145.585c4.142,0,7.5-3.358,7.5-7.5s-3.358-7.5-7.5-7.5H77.659v5.096
			c0,3.446-0.518,6.771-1.475,9.904H95.801z"/>
		<path style="fill:#4E5A61;" d="M95.801,102.672H77.659v15h18.142c4.142,0,7.5-3.358,7.5-7.5S99.943,102.672,95.801,102.672z"/>
	</g>
</g>
<g>
</g>
<g>
</g>
<g>
</g>
<g>
</g>
<g>
</g>
<g>
</g>
<g>
</g>
<g>
</g>
<g>
</g>
<g>
</g>
<g>
</g>
<g>
</g>
<g>
</g>
<g>
</g>
<g>
</g>
</svg>
